# File created by Blade
# Date/Time:  Wed Apr 08 17:24:36 2015
# Frame Rate: 120.000 fps
#------------------------------------------------------
:FULLY-SPECIFIED
:DEGREES
791
root 7.980064 37.736851 2.615761 125.526714 -46.928399 -137.570169
Spine 32.961354 4.014065 16.698949
Head -10.475114 8.239236 13.308336
LeftShoulder -5.386664 16.687614 18.898711
LeftArm 14.456574 31.174012 -78.466304
LeftForeArm 13.894317 -0.000000 31.219741
LeftHand -13.832508 -0.000000 -12.592785
LeftHandThumb1 -26.253704 0.000000 33.147579
RightShoulder -30.469486 -44.637301 18.158422
RightArm 53.473692 -5.819238 62.641101
RightForeArm 54.602628 -0.000000 35.909309
RightHand 0.094532 -0.000000 17.916595
RightHandThumb1 -24.326973 -0.000000 -32.862282
LeftUpLeg 22.689692 40.254606 37.727818
LeftLeg 14.061978 -0.000000 -0.000000
LeftFoot -16.819686 23.265510 -6.100002
LeftToeBase 4.076210 -0.000000 -0.000000
RightUpLeg -69.741826 -27.701455 -14.550503
RightLeg 152.775699 -0.000000 -0.000000
RightFoot 15.339194 4.634680 7.748374
RightToeBase -8.095626 -0.000000 0.000000
792
root 8.024049 37.740226 2.608594 125.886565 -46.637208 -137.769017
Spine 33.017815 4.090802 16.673777
Head -10.488175 8.046105 13.460731
LeftShoulder -5.378647 16.684990 18.908543
LeftArm 14.353759 30.978395 -78.374770
LeftForeArm 13.925382 -0.000000 31.132399
LeftHand -13.774938 0.000000 -12.645475
LeftHandThumb1 -26.253704 0.000000 33.147579
RightShoulder -30.528923 -44.615706 18.247889
RightArm 53.469363 -5.779254 62.697744
RightForeArm 54.560223 0.000000 35.868262
RightHand 0.109513 -0.000000 17.792911
RightHandThumb1 -24.326973 -0.000000 -32.862282
LeftUpLeg 22.376214 40.436281 37.778886
LeftLeg 14.430095 -0.000000 -0.000000
LeftFoot -16.885991 23.443480 -6.146158
LeftToeBase 4.092242 -0.000000 -0.000000
RightUpLeg -69.596415 -27.585911 -14.680469
RightLeg 152.766850 -0.000000 -0.000000
RightFoot 14.975541 4.386607 7.683602
RightToeBase -8.065787 -0.000000 0.000000
793
root 8.067050 37.740958 2.603355 126.319045 -46.370437 -138.000196
Spine 33.011237 4.181168 16.608346
Head -10.472576 7.856934 13.609018
LeftShoulder -5.379031 16.742062 18.887783
LeftArm 14.297505 30.707721 -78.236884
LeftForeArm 14.102137 -0.000000 31.047735
LeftHand -13.769942 0.000000 -12.595421
LeftHandThumb1 -26.253704 0.000000 33.147579
RightShoulder -30.584680 -44.585732 18.335679
RightArm 53.459587 -5.772445 62.671694
RightForeArm 54.626342 -0.000000 35.787749
RightHand 0.074073 0.000000 18.082028
RightHandThumb1 -24.326973 -0.000000 -32.862282
LeftUpLeg 21.997784 40.610146 37.727764
LeftLeg 14.795521 -0.000000 -0.000000
LeftFoot -16.951206 23.656246 -6.234097
LeftToeBase 4.011735 -0.000000 -0.000000
RightUpLeg -69.515674 -27.492719 -14.832954
RightLeg 152.773040 -0.000000 -0.000000
RightFoot 14.659777 4.186540 7.372487
RightToeBase -8.144034 -0.000000 0.000000
794
root 8.110327 37.743829 2.595865 126.683766 -46.090231 -138.233126
Spine 33.074483 4.213689 16.515529
Head -10.415135 7.720494 13.772972
LeftShoulder -5.405293 16.788291 18.887735
LeftArm 14.233914 30.347632 -78.150474
LeftForeArm 14.229744 -0.000000 30.870304
LeftHand -13.791828 0.000000 -12.643944
LeftHandThumb1 -26.253704 0.000000 33.147579
RightShoulder -30.519811 -44.576971 18.323098
RightArm 53.435267 -5.781518 62.646283
RightForeArm 54.622506 -0.000000 35.729535
RightHand 0.126757 -0.000000 18.106387
RightHandThumb1 -24.326973 -0.000000 -32.862282
LeftUpLeg 21.749657 40.811673 37.789215
LeftLeg 15.122202 -0.000000 -0.000000
LeftFoot -16.995492 23.812763 -6.303512
LeftToeBase 3.983785 -0.000000 -0.000000
RightUpLeg -69.349598 -27.365193 -15.021908
RightLeg 152.775255 -0.000000 -0.000000
RightFoot 14.310845 4.024657 7.239207
RightToeBase -8.040727 -0.000000 0.000000
795
root 8.157464 37.746658 2.588937 127.047512 -45.831351 -138.433091
Spine 33.115036 4.236518 16.424013
Head -10.373004 7.618766 13.929918
LeftShoulder -5.391150 16.808456 18.890714
LeftArm 14.126811 29.969275 -78.047710
LeftForeArm 14.302726 -0.000000 30.736018
LeftHand -13.812143 0.000000 -12.540753
LeftHandThumb1 -26.253704 0.000000 33.147579
RightShoulder -30.476846 -44.549350 18.305933
RightArm 53.387738 -5.786471 62.658036
RightForeArm 54.658362 -0.000000 35.706611
RightHand 0.047554 0.000000 18.123129
RightHandThumb1 -24.326973 -0.000000 -32.862282
LeftUpLeg 21.443238 41.019993 37.823431
LeftLeg 15.466379 -0.000000 -0.000000
LeftFoot -17.036637 23.942827 -6.333525
LeftToeBase 4.002874 -0.000000 -0.000000
RightUpLeg -69.205833 -27.261293 -15.189183
RightLeg 152.787042 -0.000000 -0.000000
RightFoot 13.940014 3.952294 7.129431
RightToeBase -7.979386 -0.000000 0.000000
796
root 8.207028 37.750050 2.579938 127.425659 -45.534101 -138.665870
Spine 33.176640 4.280440 16.343452
Head -10.314510 7.496953 14.070581
LeftShoulder -5.421449 16.832112 18.879045
LeftArm 14.073892 29.517354 -77.925126
LeftForeArm 14.498862 -0.000000 30.533554
LeftHand -13.834330 -0.000000 -12.630160
LeftHandThumb1 -26.253704 0.000000 33.147579
RightShoulder -30.402436 -44.514123 18.225289
RightArm 53.305911 -5.838686 62.699085
RightForeArm 54.515962 -0.000000 35.707084
RightHand 0.123101 -0.000000 18.087956
RightHandThumb1 -24.326973 -0.000000 -32.862282
LeftUpLeg 21.184845 41.263476 37.918268
LeftLeg 15.823113 -0.000000 -0.000000
LeftFoot -17.073158 24.048486 -6.396752
LeftToeBase 3.934718 -0.000000 -0.000000
RightUpLeg -69.073760 -27.094905 -15.325434
RightLeg 152.795292 -0.000000 -0.000000
RightFoot 13.575805 3.976062 7.074890
RightToeBase -7.886710 -0.000000 0.000000
797
root 8.266122 37.755453 2.570195 127.821403 -45.263713 -138.793737
Spine 33.125577 4.305915 16.276529
Head -10.225580 7.350963 14.247113
LeftShoulder -5.327191 16.745583 18.926024
LeftArm 13.889556 29.141007 -77.817569
LeftForeArm 14.498201 -0.000000 30.315862
LeftHand -13.804067 -0.000000 -12.650361
LeftHandThumb1 -26.253704 0.000000 33.147579
RightShoulder -30.414701 -44.485447 18.253948
RightArm 53.274904 -5.826559 62.773128
RightForeArm 54.526902 0.000000 35.671906
RightHand 0.019975 -0.000000 18.214653
RightHandThumb1 -24.326973 -0.000000 -32.862282
LeftUpLeg 20.696300 41.489076 37.905720
LeftLeg 16.236772 -0.000000 -0.000000
LeftFoot -17.094618 24.210162 -6.418204
LeftToeBase 3.882774 -0.000000 -0.000000
RightUpLeg -69.004332 -27.012102 -15.406728
RightLeg 152.791967 -0.000000 -0.000000
RightFoot 13.207350 4.180280 7.103709
RightToeBase -7.834304 -0.000000 0.000000
798
root 8.335389 37.757809 2.564409 128.305988 -44.994158 -138.915884
Spine 32.996174 4.361312 16.204895
Head -10.202264 7.249480 14.401895
LeftShoulder -5.283090 16.630500 18.979805
LeftArm 13.754693 28.760891 -77.689594
LeftForeArm 14.568274 0.000000 30.050467
LeftHand -13.843948 -0.000000 -12.576715
LeftHandThumb1 -26.253704 0.000000 33.147579
RightShoulder -30.485049 -44.455271 18.342226
RightArm 53.283651 -5.841919 62.794344
RightForeArm 54.427100 0.000000 35.650178
RightHand 0.102700 -0.000000 18.173043
RightHandThumb1 -24.326973 -0.000000 -32.862282
LeftUpLeg 20.045276 41.767956 37.804914
LeftLeg 16.723261 -0.000000 -0.000000
LeftFoot -17.172596 24.369322 -6.474750
LeftToeBase 3.864204 -0.000000 -0.000000
RightUpLeg -69.078794 -26.913391 -15.390315
RightLeg 152.826560 -0.000000 -0.000000
RightFoot 12.716304 4.504756 7.136707
RightToeBase -7.871636 -0.000000 0.000000
799
root 8.408736 37.762564 2.556122 128.737883 -44.738638 -138.949674
Spine 32.837088 4.378747 16.151164
Head -10.155346 7.109227 14.604834
LeftShoulder -5.229946 16.553818 19.040936
LeftArm 13.678847 28.356663 -77.507475
LeftForeArm 14.561961 0.000000 29.801822
LeftHand -13.895360 0.000000 -12.615251
LeftHandThumb1 -26.253704 0.000000 33.147579
RightShoulder -30.528056 -44.416652 18.440407
RightArm 53.256293 -5.841372 62.801248
RightForeArm 54.284634 0.000000 35.661717
RightHand 0.063825 -0.000000 18.165033
RightHandThumb1 -24.326973 -0.000000 -32.862282
LeftUpLeg 19.297011 42.009644 37.696129
LeftLeg 17.267227 -0.000000 -0.000000
LeftFoot -17.247326 24.516579 -6.547950
LeftToeBase 3.837027 -0.000000 -0.000000
RightUpLeg -69.127760 -26.863492 -15.368097
RightLeg 152.847440 -0.000000 -0.000000
RightFoot 12.261670 5.001835 7.224174
RightToeBase -8.023039 -0.000000 0.000000
800
root 8.494749 37.766930 2.548694 129.273662 -44.458405 -138.940247
Spine 32.532609 4.424042 16.105817
Head -10.090491 6.954048 14.847260
LeftShoulder -5.178060 16.509996 19.108550
LeftArm 13.645585 27.916576 -77.270384
LeftForeArm 14.583162 0.000000 29.563807
LeftHand -13.982600 -0.000000 -12.753869
LeftHandThumb1 -26.253704 0.000000 33.147579
RightShoulder -30.586326 -44.368972 18.593895
RightArm 53.257330 -5.836317 62.725521
RightForeArm 54.184338 -0.000000 35.613763
RightHand 0.055876 -0.000000 18.137969
RightHandThumb1 -24.326973 -0.000000 -32.862282
LeftUpLeg 18.364244 42.375550 37.549079
LeftLeg 17.864792 -0.000000 -0.000000
LeftFoot -17.339636 24.600217 -6.597712
LeftToeBase 3.829997 -0.000000 -0.000000
RightUpLeg -69.378558 -26.804627 -15.179052
RightLeg 152.864902 -0.000000 -0.000000
RightFoot 11.846582 5.545134 7.451007
RightToeBase -8.259154 -0.000000 0.000000
